<?xml version="1.0" encoding="utf-8"?>
<!-- Generator: Adobe Illustrator 27.0.1, SVG Export Plug-In . SVG Version: 6.00 Build 0)  -->
<svg version="1.1" xmlns="http://www.w3.org/2000/svg" xmlns:xlink="http://www.w3.org/1999/xlink" x="0px" y="0px"
	 viewBox="0 0 833.33 833.33" style="enable-background:new 0 0 833.33 833.33;" xml:space="preserve">
<style type="text/css">
	.st0{fill-rule:evenodd;clip-rule:evenodd;fill:#FFFFFF;}
	.st1{fill:url(#XMLID_00000007429908422854030840000012564469374192883873_);}
	.st2{fill:url(#XMLID_00000147182186966636549930000008084645883827166118_);}
	.st3{fill:url(#XMLID_00000088822810424064596360000014170482925810702232_);}
</style>
<g id="BACKGROUND">
	<path class="st0" d="M424.29,124.2l0.03-0.5c-3.74-30.42-12.41-57.8-26.15-82.03c-11.9,33.14-25.08,62.18-39.43,87.53
		C202.21,156.79,83.29,293.45,83.29,457.89c0,184.34,149.44,333.78,333.78,333.78c184.34,0,333.78-149.44,333.78-333.78
		C750.85,275.96,605.3,128.04,424.29,124.2z"/>
</g>
<g id="OBJECT">
	<g>
		
			<linearGradient id="XMLID_00000149365534467442498070000011026507259554537884_" gradientUnits="userSpaceOnUse" x1="405.1977" y1="753.9388" x2="405.1977" y2="-2073.2996">
			<stop  offset="0" style="stop-color:#FFFFFF"/>
			<stop  offset="0.5" style="stop-color:#ED1C24"/>
			<stop  offset="1" style="stop-color:#812326"/>
		</linearGradient>
		<path id="XMLID_162_" style="fill:url(#XMLID_00000149365534467442498070000011026507259554537884_);" d="M488.22,295.57
			c50.47,8.8,77.73,32.63,98.78,60.43c-26.45-10.85-53.33-11.58-80.48-4.87c33.6,24.17,33.21,56.92,20.7,89.9
			c-49.7,99.78-230.31,148.32-167.94,345.65c-37.92-6.6-73.68-19.62-106.08-37.96c-20.58-57.31-1.66-129.6,91.98-172.34
			c-41.94-6.1-82.72-0.81-121.79,20.89c57.81-85.61,135.08-88.28,203.2-131.56c76.42-48.58,6.87-138.67-73.06-69.66
			c22.13-30.82,70.59-59.28,132.38-76.73c-32.51-16.03-76.73-22.32-119.75-19.35c49.93-29.66,107.55-37.53,172.11-26.34
			C517.53,277.65,500.89,284.99,488.22,295.57z"/>
		<g>
			
				<radialGradient id="XMLID_00000052795842957836448390000016251428545461848764_" cx="342.6283" cy="-607.9158" r="2043.6605" gradientUnits="userSpaceOnUse">
				<stop  offset="0" style="stop-color:#FFFFFF"/>
				<stop  offset="0.5" style="stop-color:#ED1C24"/>
				<stop  offset="1" style="stop-color:#812326"/>
			</radialGradient>
			<path id="XMLID_10_" style="fill:url(#XMLID_00000052795842957836448390000016251428545461848764_);" d="M750.85,457.45
				c0,75.92-25.53,146.05-68.43,202.23c-48.73,45.53-124.92,9.38-62.6-91.17c-26.72-1.27-51.2,8.15-73.52,27.42
				c16.68-69.74,100.21-97.16,68.04-194.32c25.02,14.17,43.75,35.33,57.11,62.56c2.51-58.77-12.4-117.12-75.76-174.51
				c21.7-1.51,40.43,3.13,57.11,12.13c-36.14-56.77-91.6-92.14-174.51-97.7c9.92-14.17,23.67-24.95,41.67-31.82
				c-38.73-6.64-77.27-7.26-115.27,6.6c-15.06,24.21-34.21,41.24-55.92,53.79c20.04-32.63,34.75-68.5,42.71-108.43
				c5.17-25.76,7.53-53.17,6.68-82.56c14.52,24.71,23.13,51.98,26.1,81.75C604.8,127.43,750.85,275.95,750.85,457.45z
				 M527.22,441.03c-49.7,99.78-266.41,193.2-167.94,345.65c18.65,3.28,37.84,4.98,57.42,4.98c53.41,0,103.95-12.63,148.79-35.1
				c-61.21,4.44-173.12-89.01-87.47-228.76C493.09,503.21,515.49,472,527.22,441.03z"/>
			
				<radialGradient id="XMLID_00000098213668828691111020000008074290859833431430_" cx="437.159" cy="-682.579" r="1988.6584" gradientUnits="userSpaceOnUse">
				<stop  offset="0" style="stop-color:#FFFFFF"/>
				<stop  offset="0.5" style="stop-color:#ED1C24"/>
				<stop  offset="1" style="stop-color:#812326"/>
			</radialGradient>
			<path id="XMLID_8_" style="fill:url(#XMLID_00000098213668828691111020000008074290859833431430_);" d="M183.77,402.34
				c7.26-33.17,33.33-38.73,30.39-10.7C208.68,378.4,193.54,385.04,183.77,402.34z M257.45,282.05c1.89,11.2,0.46,23.48-2.78,36.22
				c9.42-8.88,18.81-17.76,28.23-26.65c5.1-13.98,10.31-27.96,15.41-41.94C285.41,261.43,272.17,272.82,257.45,282.05z
				 M352.18,464.09c-27.96,13.63-59.78,16.84-96.54,7.07c40.28-13.71,64.03-42.94,60.36-97.58c13.59-17.49,31.63-31.94,53.68-43.56
				c-80.13,11.01-136.51,51.09-106.77,79.05c-13.59,5.99-31.78,5.29-41.82,6.18c-29.43,2.66-32.48,23.13-15.52,33.33
				c-16.49,3.32-32.9,3.67-49.39-4.63c-9.92-31.82-8.88-63.56,6.72-95.38c15.87,51.55,79.59-14.17,71.9-78.43
				c48.77-39.43,91.71-85.07,124.19-141.8C202.23,155.82,82.48,293.13,82.48,457.45c0,124.77,68.97,233.94,170.72,291.28
				c-20.58-57.31-1.66-129.6,91.98-172.34c-41.94-6.1-82.72-0.81-121.79,20.89c57.81-85.61,135.08-88.28,203.2-131.56
				c76.42-48.58,6.87-138.67-73.06-69.66C337.31,418.56,335.19,442.38,352.18,464.09z"/>
		</g>
	</g>
</g>
</svg>
